<mxfile host="app.diagrams.net" modified="2022-02-01T18:45:30.969Z" agent="5.0 (Windows NT 10.0; Win64; x64) AppleWebKit/537.36 (KHTML, like Gecko) Chrome/97.0.4692.99 Safari/537.36" etag="ltEl5i5kcNYi1muz_iTr" version="16.5.2" type="github">
  <diagram id="S27CkOEPfE1eEXfamJG5" name="Page-1">
    <mxGraphModel dx="729" dy="407" grid="1" gridSize="10" guides="1" tooltips="1" connect="1" arrows="1" fold="1" page="1" pageScale="1" pageWidth="850" pageHeight="1100" math="0" shadow="0">
      <root>
        <mxCell id="0" />
        <mxCell id="1" parent="0" />
        <mxCell id="y59K3LEfk0CwCGQ0jLyS-1" value="" style="endArrow=classic;startArrow=classic;html=1;rounded=0;" edge="1" parent="1">
          <mxGeometry width="50" height="50" relative="1" as="geometry">
            <mxPoint x="200" y="400" as="sourcePoint" />
            <mxPoint x="200" y="120" as="targetPoint" />
          </mxGeometry>
        </mxCell>
        <mxCell id="y59K3LEfk0CwCGQ0jLyS-2" value="" style="endArrow=classic;startArrow=classic;html=1;rounded=0;" edge="1" parent="1">
          <mxGeometry width="50" height="50" relative="1" as="geometry">
            <mxPoint x="80" y="280" as="sourcePoint" />
            <mxPoint x="440" y="280" as="targetPoint" />
            <Array as="points" />
          </mxGeometry>
        </mxCell>
        <mxCell id="y59K3LEfk0CwCGQ0jLyS-3" value="" style="endArrow=none;html=1;rounded=0;" edge="1" parent="1">
          <mxGeometry width="50" height="50" relative="1" as="geometry">
            <mxPoint x="240" y="290" as="sourcePoint" />
            <mxPoint x="240" y="270" as="targetPoint" />
          </mxGeometry>
        </mxCell>
        <mxCell id="y59K3LEfk0CwCGQ0jLyS-4" value="" style="endArrow=none;html=1;rounded=0;" edge="1" parent="1">
          <mxGeometry width="50" height="50" relative="1" as="geometry">
            <mxPoint x="279" y="290" as="sourcePoint" />
            <mxPoint x="279" y="270" as="targetPoint" />
          </mxGeometry>
        </mxCell>
        <mxCell id="y59K3LEfk0CwCGQ0jLyS-5" value="" style="endArrow=none;html=1;rounded=0;" edge="1" parent="1">
          <mxGeometry width="50" height="50" relative="1" as="geometry">
            <mxPoint x="319" y="290" as="sourcePoint" />
            <mxPoint x="319" y="270" as="targetPoint" />
          </mxGeometry>
        </mxCell>
        <mxCell id="y59K3LEfk0CwCGQ0jLyS-6" value="" style="endArrow=none;html=1;rounded=0;" edge="1" parent="1">
          <mxGeometry width="50" height="50" relative="1" as="geometry">
            <mxPoint x="359" y="290" as="sourcePoint" />
            <mxPoint x="359" y="270" as="targetPoint" />
          </mxGeometry>
        </mxCell>
        <mxCell id="y59K3LEfk0CwCGQ0jLyS-7" value="" style="endArrow=none;html=1;rounded=0;" edge="1" parent="1">
          <mxGeometry width="50" height="50" relative="1" as="geometry">
            <mxPoint x="399" y="290" as="sourcePoint" />
            <mxPoint x="399" y="270" as="targetPoint" />
          </mxGeometry>
        </mxCell>
        <mxCell id="y59K3LEfk0CwCGQ0jLyS-11" value="" style="endArrow=none;html=1;rounded=0;" edge="1" parent="1">
          <mxGeometry width="50" height="50" relative="1" as="geometry">
            <mxPoint x="119" y="290" as="sourcePoint" />
            <mxPoint x="119" y="270" as="targetPoint" />
          </mxGeometry>
        </mxCell>
        <mxCell id="y59K3LEfk0CwCGQ0jLyS-12" value="" style="endArrow=none;html=1;rounded=0;" edge="1" parent="1">
          <mxGeometry width="50" height="50" relative="1" as="geometry">
            <mxPoint x="159" y="290" as="sourcePoint" />
            <mxPoint x="159" y="270" as="targetPoint" />
          </mxGeometry>
        </mxCell>
        <mxCell id="y59K3LEfk0CwCGQ0jLyS-13" value="" style="endArrow=none;html=1;rounded=0;" edge="1" parent="1">
          <mxGeometry width="50" height="50" relative="1" as="geometry">
            <mxPoint x="190" y="240" as="sourcePoint" />
            <mxPoint x="210" y="240" as="targetPoint" />
          </mxGeometry>
        </mxCell>
        <mxCell id="y59K3LEfk0CwCGQ0jLyS-16" value="" style="endArrow=none;html=1;rounded=0;" edge="1" parent="1">
          <mxGeometry width="50" height="50" relative="1" as="geometry">
            <mxPoint x="190" y="320" as="sourcePoint" />
            <mxPoint x="210" y="320" as="targetPoint" />
          </mxGeometry>
        </mxCell>
        <mxCell id="y59K3LEfk0CwCGQ0jLyS-21" value="" style="endArrow=none;html=1;rounded=0;strokeWidth=2;strokeColor=#00CC66;opacity=60;" edge="1" parent="1">
          <mxGeometry width="50" height="50" relative="1" as="geometry">
            <mxPoint x="100" y="280" as="sourcePoint" />
            <mxPoint x="170" y="280" as="targetPoint" />
            <Array as="points">
              <mxPoint x="200" y="280" />
            </Array>
          </mxGeometry>
        </mxCell>
        <mxCell id="y59K3LEfk0CwCGQ0jLyS-22" value="" style="endArrow=none;html=1;rounded=0;strokeWidth=2;strokeColor=#00CC66;opacity=60;" edge="1" parent="1">
          <mxGeometry width="50" height="50" relative="1" as="geometry">
            <mxPoint x="200" y="280" as="sourcePoint" />
            <mxPoint x="200" y="260" as="targetPoint" />
            <Array as="points" />
          </mxGeometry>
        </mxCell>
        <mxCell id="y59K3LEfk0CwCGQ0jLyS-24" value="" style="endArrow=none;html=1;rounded=0;strokeWidth=2;strokeColor=#00CC66;opacity=60;" edge="1" parent="1">
          <mxGeometry width="50" height="50" relative="1" as="geometry">
            <mxPoint x="259" y="281" as="sourcePoint" />
            <mxPoint x="259" y="261" as="targetPoint" />
            <Array as="points" />
          </mxGeometry>
        </mxCell>
        <mxCell id="y59K3LEfk0CwCGQ0jLyS-25" value="" style="endArrow=none;html=1;rounded=0;strokeWidth=2;strokeColor=#00CC66;opacity=60;" edge="1" parent="1">
          <mxGeometry width="50" height="50" relative="1" as="geometry">
            <mxPoint x="259" y="279" as="sourcePoint" />
            <mxPoint x="320" y="279" as="targetPoint" />
            <Array as="points" />
          </mxGeometry>
        </mxCell>
        <mxCell id="y59K3LEfk0CwCGQ0jLyS-26" value="" style="endArrow=classic;html=1;rounded=0;strokeColor=#00CC66;strokeWidth=2;opacity=60;" edge="1" parent="1">
          <mxGeometry width="50" height="50" relative="1" as="geometry">
            <mxPoint x="319" y="279" as="sourcePoint" />
            <mxPoint x="319" y="400" as="targetPoint" />
          </mxGeometry>
        </mxCell>
        <mxCell id="y59K3LEfk0CwCGQ0jLyS-27" value="" style="endArrow=classic;html=1;rounded=0;strokeColor=#00CC66;strokeWidth=2;opacity=60;" edge="1" parent="1">
          <mxGeometry width="50" height="50" relative="1" as="geometry">
            <mxPoint x="320" y="320" as="sourcePoint" />
            <mxPoint x="440" y="320" as="targetPoint" />
          </mxGeometry>
        </mxCell>
        <mxCell id="y59K3LEfk0CwCGQ0jLyS-28" value="" style="endArrow=classic;html=1;rounded=0;strokeColor=#00CC66;strokeWidth=2;opacity=60;" edge="1" parent="1">
          <mxGeometry width="50" height="50" relative="1" as="geometry">
            <mxPoint x="259" y="259" as="sourcePoint" />
            <mxPoint x="259" y="130" as="targetPoint" />
          </mxGeometry>
        </mxCell>
        <mxCell id="y59K3LEfk0CwCGQ0jLyS-30" value="" style="endArrow=none;html=1;rounded=0;" edge="1" parent="1">
          <mxGeometry width="50" height="50" relative="1" as="geometry">
            <mxPoint x="99" y="290" as="sourcePoint" />
            <mxPoint x="99" y="270" as="targetPoint" />
          </mxGeometry>
        </mxCell>
        <mxCell id="y59K3LEfk0CwCGQ0jLyS-31" value="" style="endArrow=none;html=1;rounded=0;" edge="1" parent="1">
          <mxGeometry width="50" height="50" relative="1" as="geometry">
            <mxPoint x="139" y="290" as="sourcePoint" />
            <mxPoint x="139" y="270" as="targetPoint" />
          </mxGeometry>
        </mxCell>
        <mxCell id="y59K3LEfk0CwCGQ0jLyS-32" value="" style="endArrow=none;html=1;rounded=0;" edge="1" parent="1">
          <mxGeometry width="50" height="50" relative="1" as="geometry">
            <mxPoint x="179" y="290" as="sourcePoint" />
            <mxPoint x="179" y="270" as="targetPoint" />
          </mxGeometry>
        </mxCell>
        <mxCell id="y59K3LEfk0CwCGQ0jLyS-33" value="" style="endArrow=none;html=1;rounded=0;" edge="1" parent="1">
          <mxGeometry width="50" height="50" relative="1" as="geometry">
            <mxPoint x="219" y="290" as="sourcePoint" />
            <mxPoint x="219" y="270" as="targetPoint" />
          </mxGeometry>
        </mxCell>
        <mxCell id="y59K3LEfk0CwCGQ0jLyS-34" value="" style="endArrow=none;html=1;rounded=0;" edge="1" parent="1">
          <mxGeometry width="50" height="50" relative="1" as="geometry">
            <mxPoint x="258" y="290" as="sourcePoint" />
            <mxPoint x="258" y="270" as="targetPoint" />
          </mxGeometry>
        </mxCell>
        <mxCell id="y59K3LEfk0CwCGQ0jLyS-35" value="" style="endArrow=none;html=1;rounded=0;" edge="1" parent="1">
          <mxGeometry width="50" height="50" relative="1" as="geometry">
            <mxPoint x="298" y="290" as="sourcePoint" />
            <mxPoint x="298" y="270" as="targetPoint" />
          </mxGeometry>
        </mxCell>
        <mxCell id="y59K3LEfk0CwCGQ0jLyS-36" value="" style="endArrow=none;html=1;rounded=0;" edge="1" parent="1">
          <mxGeometry width="50" height="50" relative="1" as="geometry">
            <mxPoint x="338" y="290" as="sourcePoint" />
            <mxPoint x="338" y="270" as="targetPoint" />
          </mxGeometry>
        </mxCell>
        <mxCell id="y59K3LEfk0CwCGQ0jLyS-37" value="" style="endArrow=none;html=1;rounded=0;" edge="1" parent="1">
          <mxGeometry width="50" height="50" relative="1" as="geometry">
            <mxPoint x="378" y="290" as="sourcePoint" />
            <mxPoint x="378" y="270" as="targetPoint" />
          </mxGeometry>
        </mxCell>
        <mxCell id="y59K3LEfk0CwCGQ0jLyS-38" value="" style="endArrow=none;html=1;rounded=0;" edge="1" parent="1">
          <mxGeometry width="50" height="50" relative="1" as="geometry">
            <mxPoint x="190" y="260" as="sourcePoint" />
            <mxPoint x="210" y="260" as="targetPoint" />
          </mxGeometry>
        </mxCell>
        <mxCell id="y59K3LEfk0CwCGQ0jLyS-41" value="" style="endArrow=none;html=1;rounded=0;strokeWidth=2;strokeColor=#00CC66;opacity=60;" edge="1" parent="1">
          <mxGeometry width="50" height="50" relative="1" as="geometry">
            <mxPoint x="199" y="260" as="sourcePoint" />
            <mxPoint x="260" y="260" as="targetPoint" />
            <Array as="points" />
          </mxGeometry>
        </mxCell>
        <mxCell id="y59K3LEfk0CwCGQ0jLyS-42" value="" style="endArrow=none;html=1;rounded=0;" edge="1" parent="1">
          <mxGeometry width="50" height="50" relative="1" as="geometry">
            <mxPoint x="190" y="301" as="sourcePoint" />
            <mxPoint x="210" y="301" as="targetPoint" />
          </mxGeometry>
        </mxCell>
        <mxCell id="y59K3LEfk0CwCGQ0jLyS-45" value="t" style="text;html=1;strokeColor=none;fillColor=none;align=center;verticalAlign=middle;whiteSpace=wrap;rounded=0;" vertex="1" parent="1">
          <mxGeometry x="421" y="264" width="60" height="30" as="geometry" />
        </mxCell>
        <mxCell id="y59K3LEfk0CwCGQ0jLyS-46" value="df(t)/dt" style="text;html=1;strokeColor=none;fillColor=none;align=center;verticalAlign=middle;whiteSpace=wrap;rounded=0;" vertex="1" parent="1">
          <mxGeometry x="146" y="100" width="60" height="30" as="geometry" />
        </mxCell>
        <mxCell id="y59K3LEfk0CwCGQ0jLyS-47" value="1" style="text;html=1;strokeColor=none;fillColor=none;align=center;verticalAlign=middle;whiteSpace=wrap;rounded=0;fontSize=9;" vertex="1" parent="1">
          <mxGeometry x="173" y="249" width="20" height="20" as="geometry" />
        </mxCell>
        <mxCell id="y59K3LEfk0CwCGQ0jLyS-48" value="2" style="text;html=1;strokeColor=none;fillColor=none;align=center;verticalAlign=middle;whiteSpace=wrap;rounded=0;fontSize=9;" vertex="1" parent="1">
          <mxGeometry x="173" y="229" width="20" height="20" as="geometry" />
        </mxCell>
        <mxCell id="y59K3LEfk0CwCGQ0jLyS-49" value="1" style="text;html=1;strokeColor=none;fillColor=none;align=center;verticalAlign=middle;whiteSpace=wrap;rounded=0;fontSize=9;" vertex="1" parent="1">
          <mxGeometry x="208" y="286" width="20" height="20" as="geometry" />
        </mxCell>
        <mxCell id="y59K3LEfk0CwCGQ0jLyS-50" value="2" style="text;html=1;strokeColor=none;fillColor=none;align=center;verticalAlign=middle;whiteSpace=wrap;rounded=0;fontSize=9;" vertex="1" parent="1">
          <mxGeometry x="230" y="286" width="20" height="20" as="geometry" />
        </mxCell>
        <mxCell id="y59K3LEfk0CwCGQ0jLyS-51" value="3" style="text;html=1;strokeColor=none;fillColor=none;align=center;verticalAlign=middle;whiteSpace=wrap;rounded=0;fontSize=9;" vertex="1" parent="1">
          <mxGeometry x="248" y="286" width="20" height="20" as="geometry" />
        </mxCell>
        <mxCell id="y59K3LEfk0CwCGQ0jLyS-52" value="4" style="text;html=1;strokeColor=none;fillColor=none;align=center;verticalAlign=middle;whiteSpace=wrap;rounded=0;fontSize=9;" vertex="1" parent="1">
          <mxGeometry x="268" y="286" width="20" height="20" as="geometry" />
        </mxCell>
        <mxCell id="y59K3LEfk0CwCGQ0jLyS-53" value="5" style="text;html=1;strokeColor=none;fillColor=none;align=center;verticalAlign=middle;whiteSpace=wrap;rounded=0;fontSize=9;" vertex="1" parent="1">
          <mxGeometry x="288" y="286" width="20" height="20" as="geometry" />
        </mxCell>
        <mxCell id="y59K3LEfk0CwCGQ0jLyS-54" value="6" style="text;html=1;strokeColor=none;fillColor=none;align=center;verticalAlign=middle;whiteSpace=wrap;rounded=0;fontSize=9;" vertex="1" parent="1">
          <mxGeometry x="308" y="286" width="20" height="20" as="geometry" />
        </mxCell>
        <mxCell id="y59K3LEfk0CwCGQ0jLyS-55" value="7&lt;span style=&quot;color: rgba(0 , 0 , 0 , 0) ; font-family: monospace ; font-size: 0px&quot;&gt;%3CmxGraphModel%3E%3Croot%3E%3CmxCell%20id%3D%220%22%2F%3E%3CmxCell%20id%3D%221%22%20parent%3D%220%22%2F%3E%3CmxCell%20id%3D%222%22%20value%3D%225%22%20style%3D%22text%3Bhtml%3D1%3BstrokeColor%3Dnone%3BfillColor%3Dnone%3Balign%3Dcenter%3BverticalAlign%3Dmiddle%3BwhiteSpace%3Dwrap%3Brounded%3D0%3BfontSize%3D9%3B%22%20vertex%3D%221%22%20parent%3D%221%22%3E%3CmxGeometry%20x%3D%22288%22%20y%3D%22286%22%20width%3D%2220%22%20height%3D%2220%22%20as%3D%22geometry%22%2F%3E%3C%2FmxCell%3E%3C%2Froot%3E%3C%2FmxGraphModel%3E&lt;/span&gt;" style="text;html=1;strokeColor=none;fillColor=none;align=center;verticalAlign=middle;whiteSpace=wrap;rounded=0;fontSize=9;" vertex="1" parent="1">
          <mxGeometry x="328" y="286" width="20" height="20" as="geometry" />
        </mxCell>
        <mxCell id="y59K3LEfk0CwCGQ0jLyS-56" value="8" style="text;html=1;strokeColor=none;fillColor=none;align=center;verticalAlign=middle;whiteSpace=wrap;rounded=0;fontSize=9;" vertex="1" parent="1">
          <mxGeometry x="349" y="286" width="20" height="20" as="geometry" />
        </mxCell>
        <mxCell id="y59K3LEfk0CwCGQ0jLyS-57" value="9" style="text;html=1;strokeColor=none;fillColor=none;align=center;verticalAlign=middle;whiteSpace=wrap;rounded=0;fontSize=9;" vertex="1" parent="1">
          <mxGeometry x="369" y="286" width="20" height="20" as="geometry" />
        </mxCell>
        <mxCell id="y59K3LEfk0CwCGQ0jLyS-58" value="10" style="text;html=1;strokeColor=none;fillColor=none;align=center;verticalAlign=middle;whiteSpace=wrap;rounded=0;fontSize=9;" vertex="1" parent="1">
          <mxGeometry x="389" y="286" width="20" height="20" as="geometry" />
        </mxCell>
        <mxCell id="y59K3LEfk0CwCGQ0jLyS-59" value="-1" style="text;html=1;strokeColor=none;fillColor=none;align=center;verticalAlign=middle;whiteSpace=wrap;rounded=0;fontSize=9;" vertex="1" parent="1">
          <mxGeometry x="168" y="292" width="20" height="20" as="geometry" />
        </mxCell>
        <mxCell id="y59K3LEfk0CwCGQ0jLyS-60" value="-2" style="text;html=1;strokeColor=none;fillColor=none;align=center;verticalAlign=middle;whiteSpace=wrap;rounded=0;fontSize=9;" vertex="1" parent="1">
          <mxGeometry x="148" y="286" width="20" height="20" as="geometry" />
        </mxCell>
        <mxCell id="y59K3LEfk0CwCGQ0jLyS-61" value="-3" style="text;html=1;strokeColor=none;fillColor=none;align=center;verticalAlign=middle;whiteSpace=wrap;rounded=0;fontSize=9;" vertex="1" parent="1">
          <mxGeometry x="128" y="286" width="20" height="20" as="geometry" />
        </mxCell>
        <mxCell id="y59K3LEfk0CwCGQ0jLyS-63" value="-4" style="text;html=1;strokeColor=none;fillColor=none;align=center;verticalAlign=middle;whiteSpace=wrap;rounded=0;fontSize=9;" vertex="1" parent="1">
          <mxGeometry x="108" y="286" width="20" height="20" as="geometry" />
        </mxCell>
        <mxCell id="y59K3LEfk0CwCGQ0jLyS-64" value="-5" style="text;html=1;strokeColor=none;fillColor=none;align=center;verticalAlign=middle;whiteSpace=wrap;rounded=0;fontSize=9;" vertex="1" parent="1">
          <mxGeometry x="88" y="286" width="20" height="20" as="geometry" />
        </mxCell>
        <mxCell id="y59K3LEfk0CwCGQ0jLyS-66" value="-2" style="text;html=1;strokeColor=none;fillColor=none;align=center;verticalAlign=middle;whiteSpace=wrap;rounded=0;fontSize=9;" vertex="1" parent="1">
          <mxGeometry x="168" y="311" width="20" height="20" as="geometry" />
        </mxCell>
      </root>
    </mxGraphModel>
  </diagram>
</mxfile>
